<svg width="157" height="51" viewBox="0 0 157 51" fill="none" xmlns="http://www.w3.org/2000/svg">
    <g id="Group 10124244">
        <path id="Vector"
            d="M37.0453 45.4019L20.1134 20.3922C20.0163 20.2413 21.4183 18.4186 21.5693 18.1922C23.5861 15.2695 25.8832 12.4224 28.3637 9.81249C30.8118 7.23496 33.4432 4.66821 36.7757 3.27699C38.2424 2.66226 39.0728 2.425 40.6474 2.26323C40.7552 2.25244 40.8739 2.24166 40.9817 2.23087V0.76416H24.5567V2.24166C25.4518 2.24166 26.3577 2.24166 27.2421 2.33872C27.8244 2.41421 28.6441 2.44657 29.0215 2.97502C29.5715 3.74073 28.8166 4.7437 28.2774 5.26136C21.2997 11.8939 15.2172 20.0795 11.669 29.0631C11.4317 29.667 11.2053 30.271 10.9788 30.8749C10.8817 31.1338 10.7847 31.4034 10.6984 31.6622V6.58788C10.6984 4.92704 11.1406 3.79465 12.0141 3.16914C12.8985 2.54363 14.0848 2.24166 15.5838 2.24166V0.76416H0V2.24166C1.49907 2.24166 2.68538 2.55441 3.56972 3.16914C4.45407 3.79465 4.88545 4.92704 4.88545 6.58788V44.3989C4.88545 46.0597 4.44328 47.1921 3.56972 47.8176C2.68538 48.4431 1.49907 48.7451 0 48.7451V50.2226H15.6054V48.7451C14.1063 48.7451 12.9092 48.4324 12.0357 47.8176C11.8739 47.699 11.7445 47.5588 11.6151 47.4078C10.0082 44.043 12.0788 35.1457 17.0182 25.7522L30.7471 45.4127C31.4157 46.3941 31.6746 47.1166 31.5236 47.5912C31.3726 48.0657 30.8765 48.3676 30.0461 48.5186C29.2156 48.6696 27.997 48.7559 26.4009 48.7559V50.2334H44.2063V48.7559C42.5024 48.7559 41.2945 48.3137 40.5827 48.098C39.1591 47.6559 37.9836 46.7715 37.0453 45.4234V45.4019Z"
            fill="#290D02" />
        <path id="Vector_2"
            d="M88.3923 44.6254L75.5801 0.76416H59.511V2.24166C61.9914 2.24166 63.8032 2.52206 64.9464 3.09365C66.0896 3.66523 66.4239 4.75448 65.9602 6.35061L54.701 44.6254C54.2373 46.1784 53.4284 47.2568 52.296 47.85C51.1528 48.4431 49.7832 48.7451 48.1763 48.7451V50.2226H64.5582V48.7451C62.3365 48.7451 60.7512 48.4647 59.8237 47.8931C58.8962 47.3215 58.659 46.2323 59.1227 44.6362L64.0621 27.715C67.6965 28.4807 77.1547 32.0289 82.0185 44.1077L82.1695 44.6362C82.6333 46.2431 82.3744 47.3323 81.393 47.8931C80.4116 48.4647 78.8263 48.7451 76.6586 48.7451V50.2226H94.8199V48.7451C93.2669 48.7451 91.9189 48.4431 90.7865 47.85C89.6433 47.2568 88.8452 46.1784 88.3815 44.6254H88.3923ZM64.9249 24.7924L70.6623 5.1643L78.6537 32.525C73.6173 27.3699 67.923 25.4718 64.9249 24.7924Z"
            fill="#290D02" />
        <path id="Vector_3"
            d="M131.904 44.7009C130.977 45.9411 129.683 46.5666 128.022 46.5666H110.41V6.58788C110.41 4.92704 110.852 3.79465 111.726 3.16914C112.61 2.54363 113.797 2.24166 115.296 2.24166V0.76416H99.3021V2.24166C100.801 2.24166 101.988 2.55441 102.872 3.16914C103.756 3.79465 104.188 4.92704 104.188 6.58788V44.3989C104.188 46.0597 103.745 47.1921 102.872 47.8176C101.988 48.4431 100.801 48.7451 99.3021 48.7451V50.2226H132.896L133.597 47.6559L135.539 39.9664L134.137 39.6537C133.565 41.7782 132.821 43.4606 131.883 44.7009H131.904Z"
            fill="#290D02" />
        <path id="Vector_4"
            d="M152.509 3.16914C153.469 2.54363 154.795 2.24166 156.51 2.24166V0.76416H139.427V2.24166C141.131 2.24166 142.469 2.55441 143.428 3.16914C144.388 3.79465 144.863 4.92704 144.863 6.58788V44.3989C144.863 46.0597 144.388 47.1921 143.428 47.8176C142.469 48.4431 141.142 48.7451 139.427 48.7451V50.2226H156.51V48.7451C154.806 48.7451 153.469 48.4324 152.509 47.8176C151.549 47.1921 151.075 46.0597 151.075 44.3989V6.58788C151.075 4.92704 151.549 3.79465 152.509 3.16914Z"
            fill="#290D02" />
    </g>
</svg>
    